inDegrees=no
num_controls=7
num_derivatives=13
num_iterations=84
num_multipliers=7
num_parameters=0
num_slacks=7
num_states=26
objective=5.789292
objective_accelerations=0.699472
objective_balance=0.129856
objective_effort=0.460355
objective_height=4.417753
objective_ligament=0.081857
solver_duration=967.674569
status=Solve_Succeeded
success=true
DataType=double
version=3
OpenSimVersion=4.4-2022-07-23-0e9fedc
endheader
time	/jointset/ground_pelvis/pelvis_tilt/value	/jointset/ground_pelvis/pelvis_tx/value	/jointset/ground_pelvis/pelvis_ty/value	/jointset/hip_l/hip_flexion_l/value	/jointset/hip_l/hip_adduction_l/value	/jointset/hip_l/hip_rotation_l/value	/jointset/back/lumbar_extension/value	/jointset/patellofemoral_l/patellar_flexion_l/value	/jointset/knee_l/knee_flexion_l/value	/jointset/knee_l/knee_adduction_l/value	/jointset/knee_l/knee_rotation_l/value	/jointset/ankle_l/ankle_angle_l/value	/jointset/subtalar_l/subtalar_angle_l/value	/jointset/ground_pelvis/pelvis_tilt/speed	/jointset/ground_pelvis/pelvis_tx/speed	/jointset/ground_pelvis/pelvis_ty/speed	/jointset/hip_l/hip_flexion_l/speed	/jointset/hip_l/hip_adduction_l/speed	/jointset/hip_l/hip_rotation_l/speed	/jointset/back/lumbar_extension/speed	/jointset/patellofemoral_l/patellar_flexion_l/speed	/jointset/knee_l/knee_flexion_l/speed	/jointset/knee_l/knee_adduction_l/speed	/jointset/knee_l/knee_rotation_l/speed	/jointset/ankle_l/ankle_angle_l/speed	/jointset/subtalar_l/subtalar_angle_l/speed	/forceset/tau_hip_flexion_l	/forceset/tau_hip_adduction_l	/forceset/tau_hip_rotation_l	/forceset/tau_knee_flexion_l	/forceset/tau_ankle_angle_l	/forceset/tau_subtalar_angle_l	/forceset/tau_lumbar_extension	lambda_cid13_p0	lambda_cid13_p1	lambda_cid13_p2	lambda_cid13_p3	lambda_cid13_p4	lambda_cid13_p5	lambda_cid14_p0	/jointset/ground_pelvis/pelvis_tilt/accel	/jointset/ground_pelvis/pelvis_tx/accel	/jointset/ground_pelvis/pelvis_ty/accel	/jointset/hip_l/hip_flexion_l/accel	/jointset/hip_l/hip_adduction_l/accel	/jointset/hip_l/hip_rotation_l/accel	/jointset/back/lumbar_extension/accel	/jointset/patellofemoral_l/patellar_flexion_l/accel	/jointset/knee_l/knee_flexion_l/accel	/jointset/knee_l/knee_adduction_l/accel	/jointset/knee_l/knee_rotation_l/accel	/jointset/ankle_l/ankle_angle_l/accel	/jointset/subtalar_l/subtalar_angle_l/accel	gamma_cid13_p0	gamma_cid13_p1	gamma_cid13_p2	gamma_cid13_p3	gamma_cid13_p4	gamma_cid13_p5	gamma_cid14_p0
1	-0.6888765450531464	-0.1178727873184123	0.5741477583340926	2.037152393171037	-0.2872655171263974	0.1694993418939346	-0.4362707867713405	1.284560905297008	1.284560905297012	-0.1741589576939606	0.1744624183990943	0.138458028360661	-0.01077703510238406	-0.01162684956307145	0.0005583898069860033	-0.00176213954038532	0.0128977248711221	0.0001753239828475681	0.001090019241239913	0.0002740555168623833	0.00242216192619408	0.002422161926194082	-0.0002453791571051799	5.44533598632505e-05	0.001333991155575997	0.0004648560123145031	-0.4688853325091952	0.01282023132676515	-0.01478383198983103	-0.2415643744162913	0.08273647282895355	0.01869656018793934	0.3700802758965743	-20.31357692731686	-4.120854921083124	-0.2506560412186883	14.97254247127928	-737.3413355185003	-34.08252418723141	-0.0402099789318027	1.978709399064059	0.1611217135220661	1.827231200351872	-6.647168669254101	-0.4590443864722418	-1.997098009103857	0.005940542314400082	-5.031333835072171	-5.031333835072172	0.1003449526013284	0.01206647347701858	-0.6536409471695885	-0.6006355059325275	5.917294086902365e-10	2.717740351464145e-09	4.36437342909154e-11	-2.622054594917613e-10	7.508534680999493e-10	1.294450268069387e-09	3.239998805872474e-10
1.01	-0.6888939791773186	-0.1178591306237764	0.5742214267014433	2.036949319100267	-0.2872861156481082	0.1694106464761709	-0.436267603326543	1.284333874122234	1.284333874122237	-0.1741557051470068	0.1744627119843219	0.1384389659937171	-0.01080167722451485	0.008199751689999082	0.002181294810439688	0.01649781945282772	-0.05356759932394698	-0.00433155514454693	-0.01869789302809834	0.0002988977189296487	-0.04781833751768248	-0.04781833751768254	0.0007237720241836123	1.209717421556537e-05	-0.005144507619713576	-0.005434715932295561	-0.4687794181299834	0.01280774751086599	-0.01477571676581002	-0.2415027632466551	0.08284517189639742	0.01872428943404449	0.3700039074403044	-20.2663677343956	-4.143058669010505	-0.2449516810743935	14.87233734461928	-737.204953723578	-34.10343557147224	-0.04027838388741722	1.993594084740168	0.1641289662334593	1.825676533698791	-6.654474105577302	-0.4520004733772416	-1.949968648916226	-0.008804299401476388	-5.01889577561837	-5.018895775618375	0.06937824855998445	-0.01123250837483422	-0.6446588618276129	-0.5908429939940278	-7.555179455215404e-09	-6.539996848363378e-09	8.889446327566638e-08	1.098114615245883e-08	-1.326564851364613e-08	7.390520462505454e-08	-1.642538081842504e-08
1.02	-0.6887113555696978	-0.1178289940646107	0.574477754315705	2.036079939825358	-0.287352881120594	0.1691280057731016	-0.4362660835314355	1.283604740397706	1.283604740397709	-0.174147925478706	0.1744628128389364	0.1383551777351965	-0.01088656005714551	0.02838469679553514	0.003854362712951338	0.03476970984175633	-0.1203633159567757	-0.009058066172109174	-0.03769903782013337	-5.867442117712065e-05	-0.09799834802447804	-0.0979983480244781	0.0006600451121649774	1.590723700066347e-05	-0.01161118715976201	-0.01158328608765691	-0.468673503750771	0.01279526369496813	-0.01476760154178547	-0.2414411520770194	0.08295387096384127	0.01875201868015096	0.369927538984035	-20.22584182547088	-4.162879624391852	-0.2410122595887116	14.80411802857756	-737.1550613575326	-34.08229511242405	-0.04054885474042588	2.050378169557167	0.1711542933336583	1.829617479494985	-6.71324715680603	-0.5029707665057908	-1.8397445136432	-0.07054232612040501	-5.019236047655959	-5.01923604765596	-0.1062306660601569	0.02129972316354694	-0.651277100121364	-0.6504351480827855	-8.008818032867268e-09	-1.701678132890588e-08	7.757786572208416e-08	7.17889597674004e-09	-1.490388575510616e-08	6.907710646181416e-08	-1.670829426218849e-08
1.03	-0.688325945961772	-0.1177819256414799	0.5749167011051167	2.034542026637625	-0.2874672583077792	0.1686573558961559	-0.4362691231075033	1.282374239558963	1.282374239558935	-0.1741431363371638	0.1744629961840339	0.1382067656718513	-0.01103331031512598	0.04867200330905822	0.00556276291855479	0.05300577516174644	-0.1871674098267775	-0.01377813595570716	-0.05649159162525543	-0.0005207651742922487	-0.1480783987842943	-0.1480783987842941	0.0004065879911172855	8.754157572242802e-06	-0.01807032445707474	-0.01772109746787369	-0.4680436185411366	0.01293430051213643	-0.01482368927248481	-0.2413765924071687	0.08332373041957189	0.01882038994617719	0.3695517922201753	-20.07422283410702	-4.223613954091573	-0.2261971319007035	14.62306242931806	-736.7082270576566	-34.12801136389351	-0.0412968933781843	2.014122452192788	0.1711996556232043	1.818516834110419	-6.656205321257553	-0.4506466550258488	-1.908122894901418	-0.02977110719030166	-4.998873083853347	-4.998873083853331	0.03140911298214581	-0.01354016630048228	-0.6430964572783073	-0.5886071887623937	-8.38395385249609e-09	-2.750600506741486e-08	6.523915166753241e-08	3.223119252167391e-09	-1.641581417268564e-08	6.345881592591799e-08	-1.682318252987788e-08
1.04	-0.6877384201767229	-0.1177176698620031	0.5755375917028995	2.032337629547358	-0.2876276605069483	0.1679969580649694	-0.4362759293225588	1.280643641513881	1.280643641513822	-0.1741376192972088	0.174462744529777	0.1379937893529845	-0.01124006929806289	0.06880793222029831	0.007291833982139462	0.07115847151611604	-0.2536600964631914	-0.01826306856886606	-0.07564862866856605	-0.0008120022187361666	-0.1980177892924664	-0.1980177892924662	0.0008056247944382935	-7.109263403493832e-05	-0.02452403826407074	-0.02358503107894132	-0.4674137333315014	0.01307333732930539	-0.0148797770031879	-0.241312032737317	0.08369358987530302	0.0188887612122045	0.3691760454563157	-19.9292812934556	-4.282040879901841	-0.2130499746264051	14.47341149408783	-736.3478659207163	-34.13201275267912	-0.04280900252391297	2.02010264910057	0.1752884649299021	1.81294368637088	-6.650965710088435	-0.4559433324179761	-1.912641161280909	-0.03637158438616125	-4.991103997327118	-4.991103997327123	0.02426811881358252	0.006760980727705207	-0.6501924020580209	-0.5956595942529563	-1.383167305679776e-08	-3.712164613702361e-08	1.161258184034663e-07	9.422004617844413e-09	-2.581840400138224e-08	1.052035225077262e-07	-2.713655010817334e-08
1.05	-0.6869501248162329	-0.1176359568974726	0.5763395497941604	2.02946977606201	-0.2878320548268259	0.167144288930099	-0.4362848786953529	1.278414382126552	1.278414382126503	-0.1741263684511118	0.1744614431473901	0.1377162046836463	-0.0115044816637345	0.08884116425947899	0.009060346057560658	0.08921491004360742	-0.3198659679588831	-0.02260559948716739	-0.09483894369354215	-0.0009561701408230977	-0.2478075907848885	-0.2478075907848882	0.001410338753245985	-0.0001927163112265509	-0.03100104869569815	-0.02928669040338737	-0.4664998965166379	0.01324009135647142	-0.01494906607472791	-0.2411999114420771	0.08426775074831115	0.0190182139449669	0.3686612026555788	-19.69914211881664	-4.385715556086177	-0.1883456332686547	14.19901112280642	-735.7457389815152	-34.19589483724862	-0.0456183626206535	1.993435060635252	0.1790739023504579	1.799251241090533	-6.598705872193758	-0.4218988693097258	-1.915319180583515	-0.0001840662237333375	-4.968935955826278	-4.968935955826241	0.07342645557867084	-0.0221952630919658	-0.6476761927280101	-0.5558192085767913	-1.943791049187043e-08	-4.670998774822925e-08	1.689882782891026e-07	1.593822317384168e-08	-3.546757699917621e-08	1.484283227494624e-07	-3.776862016492517e-08
1.06	-0.6859617968194893	-0.1175362705474873	0.5773215237317266	2.025941202261127	-0.2880795726354414	0.166101098143484	-0.4362946186813887	1.275688021178174	1.275688021178135	-0.1741100997811934	0.1744588112840015	0.1373736057441891	-0.01182559064405785	0.1088144594709977	0.01088651107307162	0.1071616407771938	-0.3858041595699434	-0.02688776631640923	-0.1137529590176206	-0.0009701248670608971	-0.2974381015023714	-0.2974381015023708	0.001809189558625835	-0.0003371888343929949	-0.03752689228784192	-0.03492435400928794	-0.4655860597017744	0.01340684538363754	-0.01501835514626817	-0.2410877901468371	0.08484191162131963	0.01914766667772934	0.3681463598548421	-19.47565502004599	-4.487247008633422	-0.1651006394992006	13.95526642910574	-735.2295888702325	-34.22040334435403	-0.05033721330385223	2.008115283568172	0.1868190529478564	1.791002127589871	-6.597429733162156	-0.4438705146060811	-1.857381221101372	-0.01032894521633281	-4.959245842339247	-4.959245842339254	-0.01690451187198556	0.002191211532739133	-0.6599590341612933	-0.582860450543859	-2.383052768714601e-08	-5.804692219506866e-08	1.996777700742769e-07	1.919029352747927e-08	-4.27847865639359e-08	1.746236429720313e-07	-4.506810955467894e-08
